<svg xmlns="http://www.w3.org/2000/svg" viewBox="0 0 1195.91 332.21">
  <defs>
    <radialGradient id="1" cx="604.76" cy="20.64" r="682.33" gradientTransform="matrix(1 0 0 .46 0 11.08)" gradientUnits="userSpaceOnUse">
      <stop offset=".2" stop-color="#ffcd41"/>
      <stop offset=".7" stop-color="#ff8d10"/>
      <stop offset="1" stop-color="#f47859"/>
    </radialGradient>
    <radialGradient id="2" cx="604.76" cy="20.64" r="682.33" gradientTransform="matrix(1 0 0 .46 0 11.15)" gradientUnits="userSpaceOnUse">
      <stop offset=".2" stop-color="#ffcd1e"/>
      <stop offset=".7" stop-color="#ff8c0a"/>
      <stop offset="1" stop-color="#ff6446"/>
    </radialGradient>
    <style>
      .cls-3,.cls-7{fill:none;stroke:#fff;stroke-width:2px}.cls-3{stroke-linejoin:round}.cls-4{fill:#f0140a}.cls-5{fill:#fff5f5}.cls-6{fill:maroon}.cls-7{stroke-miterlimit:10}
    </style>
  </defs>
  <g>
    <path d="M208.11 280.38a43 43 0 0 1 5.25 21.44c0 20.48-19.7 27.6-35.76 27.6-13.44 0-29.55-5.76-29.55-5.76L135.61 328c-3.44 1.21-6.61 3.22-6.61-1v-48c0-4.29 3.47-3 4.24-1.24 12.1 28.07 24 41.51 41.71 41.51 7.1 0 11.2-3.44 11.2-10.33 0-10.27-11.45-27.38-33.61-52.22-15.85-17.78-28.6-34.67-28.6-52.63 0-19.68 17.51-25.22 35.77-25.22 14 0 22.2 6 27.6 6 4.21 0 13.45-6 17.11-6 1.81 0 2.72.8 2.72 2.39V230c0 3.67-3.81 3-4.59.62C197.43 215 177.76 189 159.71 189c-8 0-10.5 2.07-10.5 9.33q0 8.34 6.23 18c4.14 6.42 13.26 17.59 27.6 33.27 13.14 14.4 21.58 24.55 25.07 30.78ZM117.19 88.57c0-29.42 15.09-48.65 44.33-48.65 25.78 0 42 10.8 42 37.73v12.51c0 1.59-1.17 2.38-3.5 2.38h-52.5V108c0 20.57 4.21 34.95 24.67 34.95 22.73 0 27.86-13 31.33-10.76 1.24.82-6.45 19.3-35.94 19.3-24.35.03-50.39-6.99-50.39-62.92ZM147.52 85h28.78V64.94q0-16.27-14.78-16.28-14 0-14 16.28ZM120 1H47.49c-6.4 0-1.26 3.92.46 5.06l13.95 9.17c3.23 2.18 3.72 4.06 3.72 8.86v177.76c0 14.28-7.62 22.77-21.39 22.77-18.6 0-29.95-26.53-34.86-50.92-.5-2.49-1.56-3.17-4.65-3.17-2.49 0-3.72 1.27-3.72 3.8 0 34.95 11.47 66.42 49.28 66.42 35.55 0 51.13-14.58 51.13-52.5V24.09c0-4 1.38-7 4.18-8.86l14-9.17C122.22 4.27 125.4 1 120 1Zm88.1 46.27a6.05 6.05 0 0 1 3.11 3.57l28 98.5c.42 1.48 2.07 2.18 4.66 2.18H252c1.56 0 2.62-.92 3.12-2.78L271.88 86l18.66 63.35c.47 1.58 2.07 2.18 3.89 2.18h7.78c2.33 0 3.81-.91 4.28-2.78l23.72-96.31a7.29 7.29 0 0 1 3.89-5l9.33-5c2.1-1.13 2.33-2.58-.78-2.58h-37.72c-3.1 0-3.61 1.24-1.15 2.59l8.28 4.57a2.61 2.61 0 0 1 1.18 3l-14.73 57-15.71-53.2c-.48-1.65 1.27-3.67 3.88-5.36l9.31-6c2.37-1.53 2.12-2.58-1.17-2.58H254c-2.73 0-3.15.91-.79 2.58l8.09 5.75c2.53 1.79 4.31 3.85 3.85 5.56L250.93 107l-16.09-55.95c-.37-1.28.65-2.78 2.35-3.78l8.23-4.77c2.16-1.26 2.28-2.58-.76-2.58h-43.95c-3.09 0-2.74 1.44-.77 2.58Zm965.43 79.33c-8.69 0-12.93 2.69-23 8.05v-6.73c0-.52-.24-1.32-2-1.32h-38c-3 0-3.39 1.3-.79 2.55l11.48 5.5c1 .48 1.59.85 1.59 1.77v91.4l-13 6.87c-1.66.87-2.92 2.16.7 2.16h53.06c4 0 2-1.55.75-2.16l-13.81-6.87v-73.56c0-10.44 7.7-18.24 18.6-18.24 17.66 0 20.23 9.22 23.76 9.22q2 0 2-1.77c.04-6.86-8.93-16.87-21.34-16.87ZM803.86 232.91l-9.63-7.59c-1.74-1.38-3.08-4.13-3.08-7.6V57.42a9.26 9.26 0 0 1 3.08-7.34l9.63-7.59c3.92-3.07 3.86-4.19.38-4.19H756c-2.33 0-3.59 1.59-4.25 4.7l-24.26 114.5L702.08 43c-.7-3.17-2.81-4.72-5.38-4.72h-46.83c-3.53 0-3.12 1.44.39 4.19l9.62 7.59a9.07 9.07 0 0 1 3.46 7.34v160.3a10.34 10.34 0 0 1-3.46 7.6l-9.62 7.59c-2.86 2.29-4.29 3.94-.39 3.94h47.35c3.79 0 3.08-1.17-.38-4.2l-8.09-7.07c-1.83-1.61-2.69-2.52-2.69-7.86V89.64L718 234.49a2.83 2.83 0 0 0 3 2.36h7.44c1.54 0 2.78-.64 3.09-2.1l30-145.11v128.08c0 3.32-.73 6.12-2.69 7.86l-8.09 7.07c-3.19 2.82-4.4 4.2-.38 4.2h53.89c5.11 0 .93-2.85-.4-3.94Zm232.54-10.18c1.58.79-3.69 14.12-27.32 14.12-16.57 0-25.74-3.52-25.74-20v-80.24c0-1.31-.39-2.16-1.18-2.55l-11.87-5.68v37.46c0 2.33-3.49 2.84-4.75-.2s-10.86-30.4-30.09-30.4c-7.4 0-9.9 3.75-9.9 10.59 0 9.25 8.25 19.17 24.15 32.36C963.08 189.3 975.44 202 975.44 217c0 13.93-19.71 19.82-34.05 19.82-9.62 0-16.35-1.49-23.76-6.28l-10.3 5.29c-4.78 2.46-5.14.65-5.14-2.33a25.56 25.56 0 0 1-12.65 3.32c-9.84 0-16.48-2.33-23.36-7.46-8.45 4.38-16.87 7.46-27.32 7.46-21.58 0-34.45-9.43-34.45-32.18q0-16.66 8.71-24.51c5.81-5.23 19.72-12.11 41.58-21 7.92-3.22 7.92-5 7.92-13.15 0-10-6.36-10.78-16.63-10.78-20.31 0-35.76 9.22-38.18 9.22a1.38 1.38 0 0 1-1.42-1.57c0-3.69 22-16.29 44.75-16.29 17.56 0 39.2 5.33 39.2 24.92v71.79c0 7.38 8.71 5 11.85 4.11v-29.04c0-3.12 2.56-3.53 4.11-.51 1.21 2.36 9.77 30.58 29.94 30.58 6.8 0 12.67-2.3 12.67-8.63 0-12.64-13.4-25.65-25.34-35.7C911.33 173.78 901 162.47 901 148s17-21.39 30.09-21.39c8.91 0 15.73 2.23 23.36 6.48l14.26-6.48c1.68-.75 2.48-.51 5.53-.78 14-1.24 19.4-10.88 19.4-24.52 0-1.18.94-1.76 3.17-1.76h11.88c1.58 0 2.37.49 2.37 1.61v22.1c0 1.54.77 2.18 3.17 2.18h9.1c2 0 2.47.91 0 2.35l-9.1 5.3c-2.34 1.37-3.17 2.2-3.17 3.53v84.54q0 7.26 9.5 7.26c8.85-.01 14.07-6.58 15.84-5.69Zm-173.78-58.07c-21.48 9.73-28.91 14.16-28.91 36.48 0 15 .88 27.27 13.07 27.27 7.11 0 15.84-5 15.84-11.77ZM584.84 39.92c-3.4 0-2.79.88 0 2.59l8 5a3.79 3.79 0 0 1 1.83 3.78l-12.25 58.2-14-58.21a3.85 3.85 0 0 1 1.58-3.81l7.43-5c2.25-1.51 1.33-2.58-1.16-2.58h-47c-9.2 0-13.21 2.63-23.22 8.14v-6.64c0-.84-.61-1.47-1.95-1.47h-37.31c-2.57 0-3.3 1.33-.78 2.58l11.28 5.56c1 .49 1.56.93 1.56 1.59v92.74l-7.47 4.07-7.47-4.07V2.69A1.69 1.69 0 0 0 462 1h-37.36c-2.74 0-3.2 1.18-.78 2.38l11.67 5.76a1.77 1.77 0 0 1 1.16 1.59v131.66l-12.74 7c-2.35 1.27-2.36 2.18.69 2.18h94.26c2.76 0 3.12-1 .73-2.18l-13.56-7V67.92c0-10.27 7.25-18.47 18.27-18.47 8.38 0 19.58 2.43 21.89 11.28L567 140.2a72.94 72.94 0 0 1 2.72 17.68q0 11.51-12.44 11.51c-13.13 0-16.75-12.12-21.39-12.12a1.53 1.53 0 0 0-1.55 1.6c0 7.34 9.14 19.06 27.6 19.06 12.54 0 23-6 26.05-18.67L614 50.84a5.34 5.34 0 0 1 3.12-3.57l9.72-4.77c2.78-1.37 1.58-2.58-.78-2.58ZM464.43 221.78c2.84-1.47 2.63-2.59-.39-2.59h-40.43c-2.8 0-3.23 1-.76 2.39l10.22 5.76a2.91 2.91 0 0 1 1.58 3.18l-14.91 55.78-16-55.79a2.78 2.78 0 0 1 1.55-3.17l9.75-5.76c1.3-.77 3.33-2.39-.78-2.39h-47.19c-9.29 0-17.36 5.23-22.54 8.14v-6.77c0-.47-.06-1.37-1.95-1.37h-37.32c-2.87 0-3.16 1.4-.78 2.59l11.28 5.55c1 .49 1.55.93 1.55 1.59v92.74l-12.74 6.95c-1.16.64-3.29 2.18.69 2.18h52.09c3.87 0 1.95-1.56.74-2.18l-13.56-6.95v-74.47c0-10.84 7.67-18.46 18.27-18.46 9 0 17.68 3 18.92 7.28l26.34 91.8c.59 2.05 2.33 3 4.67 3h10.88c2.33 0 3.69-1.2 4.28-3.57l24.1-97.1a5.55 5.55 0 0 1 3.11-3.58Zm-38.32-89.56c-3.47-2.29-8.6 10.76-31.33 10.76-20.46 0-24.66-14.38-24.66-34.95V92.54h52.49c2.34 0 3.5-.79 3.5-2.38V77.65c0-26.93-16.21-37.73-42-37.73-29.24 0-44.34 19.23-44.34 48.65 0 55.93 26 63 50.39 63 29.5-.05 37.19-18.57 35.95-19.35Zm-56-67.28q0-16.27 14-16.28 14.78 0 14.77 16.28V85h-28.76ZM304.46 311.5c-3.46-2.3-8.59 10.75-31.32 10.75-20.46 0-24.67-14.38-24.67-34.94v-15.49H301c2.33 0 3.49-.8 3.49-2.39v-12.51c0-26.92-16.21-37.73-42-37.73-29.24 0-44.33 19.24-44.33 48.65 0 55.93 26 63 50.39 63 29.45-.05 37.15-18.52 35.91-19.34Zm-56-67.29q0-16.28 14-16.28 14.77 0 14.77 16.28v20.06h-28.76Zm865.83-26.29c-3.53-2.27-8.74 10.64-31.86 10.64-20.8 0-25.08-14.22-25.08-34.57v-15.32h53.38c2.37 0 3.56-.79 3.56-2.36v-12.38c0-26.64-16.49-37.33-42.71-37.33-29.72 0-45.07 19-45.07 48.14 0 55.33 26.47 62.27 51.23 62.27 30-.01 37.81-18.28 36.56-19.09Zm-56.94-66.56q0-16.11 14.23-16.11 15 0 15 16.11v19.84h-29.26Zm-518 160.14c-3.46-2.3-8.58 10.75-31.27 10.75-20.43 0-24.63-14.38-24.63-34.94v-15.49h52.45c2.33 0 3.49-.8 3.49-2.39v-12.51c0-26.92-16.18-37.73-41.92-37.73-29.19 0-44.26 19.24-44.26 48.66 0 55.92 26 62.94 50.31 62.94 29.48 0 37.11-18.48 35.87-19.29Zm-55.9-67.29q0-16.28 14-16.28 14.75 0 14.75 16.28v20.06h-28.71Zm116-25c-8.52 0-12.67 2.72-22.51 8.13v-6.79c0-.54-.23-1.34-1.94-1.34h-37.21c-3 0-3.32 1.31-.77 2.58l11.25 5.55c1 .49 1.55.86 1.55 1.79v92.37l-12.71 6.94c-1.64.88-2.87 2.18.68 2.18h52c4 0 1.94-1.56.73-2.18L577 321.5v-74.35c0-10.55 7.55-18.44 18.24-18.44 17.31 0 19.82 9.32 23.29 9.32 1.29 0 1.94-.6 1.94-1.78-.01-6.94-8.8-17.06-20.97-17.06Z" fill="url(#1)"/>
    <path d="M208.11 280.38a43 43 0 0 1 5.25 21.44c0 20.48-19.7 27.6-35.76 27.6-13.44 0-29.55-5.76-29.55-5.76L135.61 328c-3.44 1.21-6.61 3.22-6.61-1v-48c0-4.29 3.47-3 4.24-1.24 12.1 28.07 24 41.51 41.71 41.51 7.1 0 11.2-3.44 11.2-10.33 0-10.27-11.45-27.38-33.61-52.22-15.85-17.78-28.6-34.67-28.6-52.63 0-19.68 17.51-25.22 35.77-25.22 14 0 22.2 6 27.6 6 4.21 0 13.45-6 17.11-6 1.81 0 2.72.8 2.72 2.39V230c0 3.67-3.81 3-4.59.62C197.43 215 177.76 189 159.71 189c-8 0-10.5 2.07-10.5 9.33q0 8.34 6.23 18c4.14 6.42 13.26 17.59 27.6 33.27 13.14 14.4 21.58 24.55 25.07 30.78ZM117.19 88.57c0-29.42 15.09-48.65 44.33-48.65 25.78 0 42 10.8 42 37.73v12.51c0 1.59-1.17 2.38-3.5 2.38h-52.5V108c0 20.57 4.21 34.95 24.67 34.95 22.73 0 27.86-13 31.33-10.76 1.24.82-6.45 19.3-35.94 19.3-24.35.03-50.39-6.99-50.39-62.92ZM147.52 85h28.78V64.94q0-16.27-14.78-16.28-14 0-14 16.28ZM120 1H47.49c-6.4 0-1.26 3.92.46 5.06l13.95 9.17c3.23 2.18 3.72 4.06 3.72 8.86v177.76c0 14.28-7.62 22.77-21.39 22.77-18.6 0-29.95-26.53-34.86-50.92-.5-2.49-1.56-3.17-4.65-3.17-2.49 0-3.72 1.27-3.72 3.8 0 34.95 11.47 66.42 49.28 66.42 35.55 0 51.13-14.58 51.13-52.5V24.09c0-4 1.38-7 4.18-8.86l14-9.17C122.22 4.27 125.4 1 120 1Zm88.1 46.27a6.05 6.05 0 0 1 3.11 3.57l28 98.5c.42 1.48 2.07 2.18 4.66 2.18H252c1.56 0 2.62-.92 3.12-2.78L271.88 86l18.66 63.35c.47 1.58 2.07 2.18 3.89 2.18h7.78c2.33 0 3.81-.91 4.28-2.78l23.72-96.31a7.29 7.29 0 0 1 3.89-5l9.33-5c2.1-1.13 2.33-2.58-.78-2.58h-37.72c-3.1 0-3.61 1.24-1.15 2.59l8.28 4.57a2.61 2.61 0 0 1 1.18 3l-14.73 57-15.71-53.2c-.48-1.65 1.27-3.67 3.88-5.36l9.31-6c2.37-1.53 2.12-2.58-1.17-2.58H254c-2.73 0-3.15.91-.79 2.58l8.09 5.75c2.53 1.79 4.31 3.85 3.85 5.56L250.93 107l-16.09-55.95c-.37-1.28.65-2.78 2.35-3.78l8.23-4.77c2.16-1.26 2.28-2.58-.76-2.58h-43.95c-3.09 0-2.74 1.44-.77 2.58Zm965.43 79.33c-8.69 0-12.93 2.69-23 8.05v-6.73c0-.52-.24-1.32-2-1.32h-38c-3 0-3.39 1.3-.79 2.55l11.48 5.5c1 .48 1.59.85 1.59 1.77v91.4l-13 6.87c-1.66.87-2.92 2.16.7 2.16h53.06c4 0 2-1.55.75-2.16l-13.81-6.87v-73.56c0-10.44 7.7-18.24 18.6-18.24 17.66 0 20.23 9.22 23.76 9.22q2 0 2-1.77c.04-6.86-8.93-16.87-21.34-16.87ZM803.86 232.91l-9.63-7.59c-1.74-1.38-3.08-4.13-3.08-7.6V57.42a9.26 9.26 0 0 1 3.08-7.34l9.63-7.59c3.92-3.07 3.86-4.19.38-4.19H756c-2.33 0-3.59 1.59-4.25 4.7l-24.26 114.5L702.08 43c-.7-3.17-2.81-4.72-5.38-4.72h-46.83c-3.53 0-3.12 1.44.39 4.19l9.62 7.59a9.07 9.07 0 0 1 3.46 7.34v160.3a10.34 10.34 0 0 1-3.46 7.6l-9.62 7.59c-2.86 2.29-4.29 3.94-.39 3.94h47.35c3.79 0 3.08-1.17-.38-4.2l-8.09-7.07c-1.83-1.61-2.69-2.52-2.69-7.86V89.64L718 234.49a2.83 2.83 0 0 0 3 2.36h7.44c1.54 0 2.78-.64 3.09-2.1l30-145.11v128.08c0 3.32-.73 6.12-2.69 7.86l-8.09 7.07c-3.19 2.82-4.4 4.2-.38 4.2h53.89c5.11 0 .93-2.85-.4-3.94Zm232.54-10.18c1.58.79-3.69 14.12-27.32 14.12-16.57 0-25.74-3.52-25.74-20v-80.24c0-1.31-.39-2.16-1.18-2.55l-11.87-5.68v37.46c0 2.33-3.49 2.84-4.75-.2s-10.86-30.4-30.09-30.4c-7.4 0-9.9 3.75-9.9 10.59 0 9.25 8.25 19.17 24.15 32.36C963.08 189.3 975.44 202 975.44 217c0 13.93-19.71 19.82-34.05 19.82-9.62 0-16.35-1.49-23.76-6.28l-10.3 5.29c-4.78 2.46-5.14.65-5.14-2.33a25.56 25.56 0 0 1-12.65 3.32c-9.84 0-16.48-2.33-23.36-7.46-8.45 4.38-16.87 7.46-27.32 7.46-21.58 0-34.45-9.43-34.45-32.18q0-16.66 8.71-24.51c5.81-5.23 19.72-12.11 41.58-21 7.92-3.22 7.92-5 7.92-13.15 0-10-6.36-10.78-16.63-10.78-20.31 0-35.76 9.22-38.18 9.22a1.38 1.38 0 0 1-1.42-1.57c0-3.69 22-16.29 44.75-16.29 17.56 0 39.2 5.33 39.2 24.92v71.79c0 7.38 8.71 5 11.85 4.11v-29.04c0-3.12 2.56-3.53 4.11-.51 1.21 2.36 9.77 30.58 29.94 30.58 6.8 0 12.67-2.3 12.67-8.63 0-12.64-13.4-25.65-25.34-35.7C911.33 173.78 901 162.47 901 148s17-21.39 30.09-21.39c8.91 0 15.73 2.23 23.36 6.48l14.26-6.48c1.68-.75 2.48-.51 5.53-.78 14-1.24 19.4-10.88 19.4-24.52 0-1.18.94-1.76 3.17-1.76h11.88c1.58 0 2.37.49 2.37 1.61v22.1c0 1.54.77 2.18 3.17 2.18h9.1c2 0 2.47.91 0 2.35l-9.1 5.3c-2.34 1.37-3.17 2.2-3.17 3.53v84.54q0 7.26 9.5 7.26c8.85-.01 14.07-6.58 15.84-5.69Zm-173.78-58.07c-21.48 9.73-28.91 14.16-28.91 36.48 0 15 .88 27.27 13.07 27.27 7.11 0 15.84-5 15.84-11.77ZM584.84 39.92c-3.4 0-2.79.88 0 2.59l8 5a3.79 3.79 0 0 1 1.83 3.78l-12.25 58.2-14-58.21a3.85 3.85 0 0 1 1.58-3.81l7.43-5c2.25-1.51 1.33-2.58-1.16-2.58h-47c-9.2 0-13.21 2.63-23.22 8.14v-6.64c0-.84-.61-1.47-1.95-1.47h-37.31c-2.57 0-3.3 1.33-.78 2.58l11.28 5.56c1 .49 1.56.93 1.56 1.59v92.74l-7.47 4.07-7.47-4.07V2.69A1.69 1.69 0 0 0 462 1h-37.36c-2.74 0-3.2 1.18-.78 2.38l11.67 5.76a1.77 1.77 0 0 1 1.16 1.59v131.66l-12.74 7c-2.35 1.27-2.36 2.18.69 2.18h94.26c2.76 0 3.12-1 .73-2.18l-13.56-7V67.92c0-10.27 7.25-18.47 18.27-18.47 8.38 0 19.58 2.43 21.89 11.28L567 140.2a72.94 72.94 0 0 1 2.72 17.68q0 11.51-12.44 11.51c-13.13 0-16.75-12.12-21.39-12.12a1.53 1.53 0 0 0-1.55 1.6c0 7.34 9.14 19.06 27.6 19.06 12.54 0 23-6 26.05-18.67L614 50.84a5.34 5.34 0 0 1 3.12-3.57l9.72-4.77c2.78-1.37 1.58-2.58-.78-2.58ZM464.43 221.78c2.84-1.47 2.63-2.59-.39-2.59h-40.43c-2.8 0-3.23 1-.76 2.39l10.22 5.76a2.91 2.91 0 0 1 1.58 3.18l-14.91 55.78-16-55.79a2.78 2.78 0 0 1 1.55-3.17l9.75-5.76c1.3-.77 3.33-2.39-.78-2.39h-47.19c-9.29 0-17.36 5.23-22.54 8.14v-6.77c0-.47-.06-1.37-1.95-1.37h-37.32c-2.87 0-3.16 1.4-.78 2.59l11.28 5.55c1 .49 1.55.93 1.55 1.59v92.74l-12.74 6.95c-1.16.64-3.29 2.18.69 2.18h52.09c3.87 0 1.95-1.56.74-2.18l-13.56-6.95v-74.47c0-10.84 7.67-18.46 18.27-18.46 9 0 17.68 3 18.92 7.28l26.34 91.8c.59 2.05 2.33 3 4.67 3h10.88c2.33 0 3.69-1.2 4.28-3.57l24.1-97.1a5.55 5.55 0 0 1 3.11-3.58Zm-38.32-89.56c-3.47-2.29-8.6 10.76-31.33 10.76-20.46 0-24.66-14.38-24.66-34.95V92.54h52.49c2.34 0 3.5-.79 3.5-2.38V77.65c0-26.93-16.21-37.73-42-37.73-29.24 0-44.34 19.23-44.34 48.65 0 55.93 26 63 50.39 63 29.5-.05 37.19-18.57 35.95-19.35Zm-56-67.28q0-16.27 14-16.28 14.78 0 14.77 16.28V85h-28.76ZM304.46 311.5c-3.46-2.3-8.59 10.75-31.32 10.75-20.46 0-24.67-14.38-24.67-34.94v-15.49H301c2.33 0 3.49-.8 3.49-2.39v-12.51c0-26.92-16.21-37.73-42-37.73-29.24 0-44.33 19.24-44.33 48.65 0 55.93 26 63 50.39 63 29.45-.05 37.15-18.52 35.91-19.34Zm-56-67.29q0-16.28 14-16.28 14.77 0 14.77 16.28v20.06h-28.76Zm865.83-26.29c-3.53-2.27-8.74 10.64-31.86 10.64-20.8 0-25.08-14.22-25.08-34.57v-15.32h53.38c2.37 0 3.56-.79 3.56-2.36v-12.38c0-26.64-16.49-37.33-42.71-37.33-29.72 0-45.07 19-45.07 48.14 0 55.33 26.47 62.27 51.23 62.27 30-.01 37.81-18.28 36.56-19.09Zm-56.94-66.56q0-16.11 14.23-16.11 15 0 15 16.11v19.84h-29.26Zm-518 160.14c-3.46-2.3-8.58 10.75-31.27 10.75-20.43 0-24.63-14.38-24.63-34.94v-15.49h52.45c2.33 0 3.49-.8 3.49-2.39v-12.51c0-26.92-16.18-37.73-41.92-37.73-29.19 0-44.26 19.24-44.26 48.66 0 55.92 26 62.94 50.31 62.94 29.48 0 37.11-18.48 35.87-19.29Zm-55.9-67.29q0-16.28 14-16.28 14.75 0 14.75 16.28v20.06h-28.71Zm116-25c-8.52 0-12.67 2.72-22.51 8.13v-6.79c0-.54-.23-1.34-1.94-1.34h-37.21c-3 0-3.32 1.31-.77 2.58l11.25 5.55c1 .49 1.55.86 1.55 1.79v92.37l-12.71 6.94c-1.64.88-2.87 2.18.68 2.18h52c4 0 1.94-1.56.73-2.18L577 321.5v-74.35c0-10.55 7.55-18.44 18.24-18.44 17.31 0 19.82 9.32 23.29 9.32 1.29 0 1.94-.6 1.94-1.78-.01-6.94-8.8-17.06-20.97-17.06Z" fill="url(#2)"/>
    <path class="cls-3" d="M208.11 280.38a43 43 0 0 1 5.25 21.44c0 20.48-19.7 27.6-35.76 27.6-13.44 0-29.55-5.76-29.55-5.76L135.61 328c-3.44 1.21-6.61 3.22-6.61-1v-48c0-4.29 3.47-3 4.24-1.24 12.1 28.07 24 41.51 41.71 41.51 7.1 0 11.2-3.44 11.2-10.33 0-10.27-11.45-27.38-33.61-52.22-15.85-17.78-28.6-34.67-28.6-52.63 0-19.68 17.51-25.22 35.77-25.22 14 0 22.2 6 27.6 6 4.21 0 13.45-6 17.11-6 1.81 0 2.72.8 2.72 2.39V230c0 3.67-3.81 3-4.59.62C197.43 215 177.76 189 159.71 189c-8 0-10.5 2.07-10.5 9.33q0 8.34 6.23 18c4.14 6.42 13.26 17.59 27.6 33.27 13.14 14.4 21.58 24.55 25.07 30.78ZM117.19 88.57c0-29.42 15.09-48.65 44.33-48.65 25.78 0 42 10.8 42 37.73v12.51c0 1.59-1.17 2.38-3.5 2.38h-52.5V108c0 20.57 4.21 34.95 24.67 34.95 22.73 0 27.86-13 31.33-10.76 1.24.82-6.45 19.3-35.94 19.3-24.35.03-50.39-6.99-50.39-62.92ZM147.52 85h28.78V64.94q0-16.27-14.78-16.28-14 0-14 16.28ZM120 1H47.49c-6.4 0-1.26 3.92.46 5.06l13.95 9.17c3.23 2.18 3.72 4.06 3.72 8.86v177.76c0 14.28-7.62 22.77-21.39 22.77-18.6 0-29.95-26.53-34.86-50.92-.5-2.49-1.56-3.17-4.65-3.17-2.49 0-3.72 1.27-3.72 3.8 0 34.95 11.47 66.42 49.28 66.42 35.55 0 51.13-14.58 51.13-52.5V24.09c0-4 1.38-7 4.18-8.86l14-9.17C122.22 4.27 125.4 1 120 1Zm88.1 46.27a6.05 6.05 0 0 1 3.11 3.57l28 98.5c.42 1.48 2.07 2.18 4.66 2.18H252c1.56 0 2.62-.92 3.12-2.78L271.88 86l18.66 63.35c.47 1.58 2.07 2.18 3.89 2.18h7.78c2.33 0 3.81-.91 4.28-2.78l23.72-96.31a7.29 7.29 0 0 1 3.89-5l9.33-5c2.1-1.13 2.33-2.58-.78-2.58h-37.72c-3.1 0-3.61 1.24-1.15 2.59l8.28 4.57a2.61 2.61 0 0 1 1.18 3l-14.73 57-15.71-53.2c-.48-1.65 1.27-3.67 3.88-5.36l9.31-6c2.37-1.53 2.12-2.58-1.17-2.58H254c-2.73 0-3.15.91-.79 2.58l8.09 5.75c2.53 1.79 4.31 3.85 3.85 5.56L250.93 107l-16.09-55.95c-.37-1.28.65-2.78 2.35-3.78l8.23-4.77c2.16-1.26 2.28-2.58-.76-2.58h-43.95c-3.09 0-2.74 1.44-.77 2.58Zm965.43 79.33c-8.69 0-12.93 2.69-23 8.05v-6.73c0-.52-.24-1.32-2-1.32h-38c-3 0-3.39 1.3-.79 2.55l11.48 5.5c1 .48 1.59.85 1.59 1.77v91.4l-13 6.87c-1.66.87-2.92 2.16.7 2.16h53.06c4 0 2-1.55.75-2.16l-13.81-6.87v-73.56c0-10.44 7.7-18.24 18.6-18.24 17.66 0 20.23 9.22 23.76 9.22q2 0 2-1.77c.04-6.86-8.93-16.87-21.34-16.87ZM803.86 232.91l-9.63-7.59c-1.74-1.38-3.08-4.13-3.08-7.6V57.42a9.26 9.26 0 0 1 3.08-7.34l9.63-7.59c3.92-3.07 3.86-4.19.38-4.19H756c-2.33 0-3.59 1.59-4.25 4.7l-24.26 114.5L702.08 43c-.7-3.17-2.81-4.72-5.38-4.72h-46.83c-3.53 0-3.12 1.44.39 4.19l9.62 7.59a9.07 9.07 0 0 1 3.46 7.34v160.3a10.34 10.34 0 0 1-3.46 7.6l-9.62 7.59c-2.86 2.29-4.29 3.94-.39 3.94h47.35c3.79 0 3.08-1.17-.38-4.2l-8.09-7.07c-1.83-1.61-2.69-2.52-2.69-7.86V89.64L718 234.49a2.83 2.83 0 0 0 3 2.36h7.44c1.54 0 2.78-.64 3.09-2.1l30-145.11v128.08c0 3.32-.73 6.12-2.69 7.86l-8.09 7.07c-3.19 2.82-4.4 4.2-.38 4.2h53.89c5.11 0 .93-2.85-.4-3.94Zm232.54-10.18c1.58.79-3.69 14.12-27.32 14.12-16.57 0-25.74-3.52-25.74-20v-80.24c0-1.31-.39-2.16-1.18-2.55l-11.87-5.68v37.46c0 2.33-3.49 2.84-4.75-.2s-10.86-30.4-30.09-30.4c-7.4 0-9.9 3.75-9.9 10.59 0 9.25 8.25 19.17 24.15 32.36C963.08 189.3 975.44 202 975.44 217c0 13.93-19.71 19.82-34.05 19.82-9.62 0-16.35-1.49-23.76-6.28l-10.3 5.29c-4.78 2.46-5.14.65-5.14-2.33a25.56 25.56 0 0 1-12.65 3.32c-9.84 0-16.48-2.33-23.36-7.46-8.45 4.38-16.87 7.46-27.32 7.46-21.58 0-34.45-9.43-34.45-32.18q0-16.66 8.71-24.51c5.81-5.23 19.72-12.11 41.58-21 7.92-3.22 7.92-5 7.92-13.15 0-10-6.36-10.78-16.63-10.78-20.31 0-35.76 9.22-38.18 9.22a1.38 1.38 0 0 1-1.42-1.57c0-3.69 22-16.29 44.75-16.29 17.56 0 39.2 5.33 39.2 24.92v71.79c0 7.38 8.71 5 11.85 4.11v-29.04c0-3.12 2.56-3.53 4.11-.51 1.21 2.36 9.77 30.58 29.94 30.58 6.8 0 12.67-2.3 12.67-8.63 0-12.64-13.4-25.65-25.34-35.7C911.33 173.78 901 162.47 901 148s17-21.39 30.09-21.39c8.91 0 15.73 2.23 23.36 6.48l14.26-6.48c1.68-.75 2.48-.51 5.53-.78 14-1.24 19.4-10.88 19.4-24.52 0-1.18.94-1.76 3.17-1.76h11.88c1.58 0 2.37.49 2.37 1.61v22.1c0 1.54.77 2.18 3.17 2.18h9.1c2 0 2.47.91 0 2.35l-9.1 5.3c-2.34 1.37-3.17 2.2-3.17 3.53v84.54q0 7.26 9.5 7.26c8.85-.01 14.07-6.58 15.84-5.69Zm-173.78-58.07c-21.48 9.73-28.91 14.16-28.91 36.48 0 15 .88 27.27 13.07 27.27 7.11 0 15.84-5 15.84-11.77ZM584.84 39.92c-3.4 0-2.79.88 0 2.59l8 5a3.79 3.79 0 0 1 1.83 3.78l-12.25 58.2-14-58.21a3.85 3.85 0 0 1 1.58-3.81l7.43-5c2.25-1.51 1.33-2.58-1.16-2.58h-47c-9.2 0-13.21 2.63-23.22 8.14v-6.64c0-.84-.61-1.47-1.95-1.47h-37.31c-2.57 0-3.3 1.33-.78 2.58l11.28 5.56c1 .49 1.56.93 1.56 1.59v92.74l-7.47 4.07-7.47-4.07V2.69A1.69 1.69 0 0 0 462 1h-37.36c-2.74 0-3.2 1.18-.78 2.38l11.67 5.76a1.77 1.77 0 0 1 1.16 1.59v131.66l-12.74 7c-2.35 1.27-2.36 2.18.69 2.18h94.26c2.76 0 3.12-1 .73-2.18l-13.56-7V67.92c0-10.27 7.25-18.47 18.27-18.47 8.38 0 19.58 2.43 21.89 11.28L567 140.2a72.94 72.94 0 0 1 2.72 17.68q0 11.51-12.44 11.51c-13.13 0-16.75-12.12-21.39-12.12a1.53 1.53 0 0 0-1.55 1.6c0 7.34 9.14 19.06 27.6 19.06 12.54 0 23-6 26.05-18.67L614 50.84a5.34 5.34 0 0 1 3.12-3.57l9.72-4.77c2.78-1.37 1.58-2.58-.78-2.58ZM464.43 221.78c2.84-1.47 2.63-2.59-.39-2.59h-40.43c-2.8 0-3.23 1-.76 2.39l10.22 5.76a2.91 2.91 0 0 1 1.58 3.18l-14.91 55.78-16-55.79a2.78 2.78 0 0 1 1.55-3.17l9.75-5.76c1.3-.77 3.33-2.39-.78-2.39h-47.19c-9.29 0-17.36 5.23-22.54 8.14v-6.77c0-.47-.06-1.37-1.95-1.37h-37.32c-2.87 0-3.16 1.4-.78 2.59l11.28 5.55c1 .49 1.55.93 1.55 1.59v92.74l-12.74 6.95c-1.16.64-3.29 2.18.69 2.18h52.09c3.87 0 1.95-1.56.74-2.18l-13.56-6.95v-74.47c0-10.84 7.67-18.46 18.27-18.46 9 0 17.68 3 18.92 7.28l26.34 91.8c.59 2.05 2.33 3 4.67 3h10.88c2.33 0 3.69-1.2 4.28-3.57l24.1-97.1a5.55 5.55 0 0 1 3.11-3.58Zm-38.32-89.56c-3.47-2.29-8.6 10.76-31.33 10.76-20.46 0-24.66-14.38-24.66-34.95V92.54h52.49c2.34 0 3.5-.79 3.5-2.38V77.65c0-26.93-16.21-37.73-42-37.73-29.24 0-44.34 19.23-44.34 48.65 0 55.93 26 63 50.39 63 29.5-.05 37.19-18.57 35.95-19.35Zm-56-67.28q0-16.27 14-16.28 14.78 0 14.77 16.28V85h-28.76ZM304.46 311.5c-3.46-2.3-8.59 10.75-31.32 10.75-20.46 0-24.67-14.38-24.67-34.94v-15.49H301c2.33 0 3.49-.8 3.49-2.39v-12.51c0-26.92-16.21-37.73-42-37.73-29.24 0-44.33 19.24-44.33 48.65 0 55.93 26 63 50.39 63 29.45-.05 37.15-18.52 35.91-19.34Zm-56-67.29q0-16.28 14-16.28 14.77 0 14.77 16.28v20.06h-28.76Zm865.83-26.29c-3.53-2.27-8.74 10.64-31.86 10.64-20.8 0-25.08-14.22-25.08-34.57v-15.32h53.38c2.37 0 3.56-.79 3.56-2.36v-12.38c0-26.64-16.49-37.33-42.71-37.33-29.72 0-45.07 19-45.07 48.14 0 55.33 26.47 62.27 51.23 62.27 30-.01 37.81-18.28 36.56-19.09Zm-56.94-66.56q0-16.11 14.23-16.11 15 0 15 16.11v19.84h-29.26Zm-518 160.14c-3.46-2.3-8.58 10.75-31.27 10.75-20.43 0-24.63-14.38-24.63-34.94v-15.49h52.45c2.33 0 3.49-.8 3.49-2.39v-12.51c0-26.92-16.18-37.73-41.92-37.73-29.19 0-44.26 19.24-44.26 48.66 0 55.92 26 62.94 50.31 62.94 29.48 0 37.11-18.48 35.87-19.29Zm-55.9-67.29q0-16.28 14-16.28 14.75 0 14.75 16.28v20.06h-28.71Zm116-25c-8.52 0-12.67 2.72-22.51 8.13v-6.79c0-.54-.23-1.34-1.94-1.34h-37.21c-3 0-3.32 1.31-.77 2.58l11.25 5.55c1 .49 1.55.86 1.55 1.79v92.37l-12.71 6.94c-1.64.88-2.87 2.18.68 2.18h52c4 0 1.94-1.56.73-2.18L577 321.5v-74.35c0-10.55 7.55-18.44 18.24-18.44 17.31 0 19.82 9.32 23.29 9.32 1.29 0 1.94-.6 1.94-1.78-.01-6.94-8.8-17.06-20.97-17.06Z"/>
  </g>
  <g>
    <g>
      <path class="cls-4" transform="rotate(-45 678.06877329 297.52471788)" d="M654.55 274.01h47.04v47.04h-47.04z"/>
      <path class="cls-5" d="M678.07 264.27v33.26h-33.26l33.26-33.26z"/>
      <path class="cls-6" d="M678.07 330.79v-33.26h33.26l-33.26 33.26z"/>
      <path class="cls-3" transform="rotate(-45 678.06877329 297.52471788)" d="M654.55 274.01h47.04v47.04h-47.04z"/>
    </g>
    <g>
      <path class="cls-4" transform="rotate(-45 769.86207445 297.5326876)" d="M746.35 274.01h47.04v47.04h-47.04z"/>
      <path class="cls-5" d="M769.87 264.27v33.26h-33.26l33.26-33.26z"/>
      <path class="cls-6" d="M769.87 330.79v-33.26h33.26l-33.26 33.26z"/>
      <path class="cls-3" transform="rotate(-45 769.86207445 297.5326876)" d="M746.35 274.01h47.04v47.04h-47.04z"/>
    </g>
    <g>
      <path class="cls-4" transform="rotate(-45 861.66037562 297.52858626)" d="M838.14 274.01h47.04v47.04h-47.04z"/>
      <path class="cls-5" d="M861.66 264.27v33.26H828.4l33.26-33.26z"/>
      <path class="cls-6" d="M861.66 330.79v-33.26h33.26l-33.26 33.26z"/>
      <path class="cls-3" transform="rotate(-45 861.66037562 297.52858626)" d="M838.14 274.01h47.04v47.04h-47.04z"/>
    </g>
    <g>
      <path class="cls-4" transform="rotate(-45 953.45867679 297.52448491)" d="M929.94 274.01h47.04v47.04h-47.04z"/>
      <path class="cls-5" d="M953.46 264.27v33.26H920.2l33.26-33.26z"/>
      <path class="cls-6" d="M953.46 330.79v-33.26h33.26l-33.26 33.26z"/>
      <path class="cls-7" transform="rotate(-45 953.45867679 297.52448491)" d="M929.94 274.01h47.04v47.04h-47.04z"/>
    </g>
    <g>
      <path class="cls-4" transform="rotate(-45 1045.25197796 297.53245463)" d="M1021.74 274.01h47.04v47.04h-47.04z"/>
      <path class="cls-5" d="M1045.26 264.27v33.26H1012l33.26-33.26z"/>
      <path class="cls-6" d="M1045.26 330.79v-33.26h33.26l-33.26 33.26z"/>
      <path class="cls-7" transform="rotate(-45 1045.25197796 297.53245463)" d="M1021.74 274.01h47.04v47.04h-47.04z"/>
    </g>
    <g>
      <path class="cls-4" transform="rotate(-45 1137.05027912 297.52835329)" d="M1113.53 274.01h47.04v47.04h-47.04z"/>
      <path class="cls-5" d="M1137.05 264.27v33.26h-33.26l33.26-33.26z"/>
      <path class="cls-6" d="M1137.05 330.79v-33.26h33.27l-33.27 33.26z"/>
      <path class="cls-3" transform="rotate(-45 1137.05027912 297.52835329)" d="M1113.53 274.01h47.04v47.04h-47.04z"/>
    </g>
  </g>
</svg>